<svg xmlns="http://www.w3.org/2000/svg" width="260" height="260" viewBox="0 0 240 240">
<ellipse cx="120" cy="60" rx="28" ry="70" fill="#f9d13c" transform="rotate(0 120 120)"/><ellipse cx="120" cy="60" rx="28" ry="70" fill="#f9d13c" transform="rotate(45 120 120)"/><ellipse cx="120" cy="60" rx="28" ry="70" fill="#f9d13c" transform="rotate(90 120 120)"/><ellipse cx="120" cy="60" rx="28" ry="70" fill="#f9d13c" transform="rotate(135 120 120)"/><ellipse cx="120" cy="60" rx="28" ry="70" fill="#f9d13c" transform="rotate(180 120 120)"/><ellipse cx="120" cy="60" rx="28" ry="70" fill="#f9d13c" transform="rotate(225 120 120)"/><ellipse cx="120" cy="60" rx="28" ry="70" fill="#f9d13c" transform="rotate(270 120 120)"/><ellipse cx="120" cy="60" rx="28" ry="70" fill="#f9d13c" transform="rotate(315 120 120)"/>
<circle cx="120" cy="120" r="32" fill="#f59e0b"/>
</svg>