<?xml version="1.0" encoding="UTF-8"?>
<svg id="Layer_1" data-name="Layer 1" xmlns="http://www.w3.org/2000/svg" viewBox="0 0 496.544731785321346 124.56693067132619">
  <defs>
    <style>
      .cls-1 {
        fill: #fff;
      }
    </style>
  </defs>
  <path class="cls-1" d="M252,21.375c2.639434814453125-20.971075057983398,30.585418701171875-29.226570129394531,43.371734619140625-11.871728897094727l43.628265380859375,66.996728897094727V0h31.5v103.875c0,2.295028686523438-3.386016845703125,8.764106750488281-4.939727783203125,10.810272216796875-10.30938720703125,13.576934814453125-28.879913330078125,12.9090576171875-39.181732177734375-.438812255859375-13.19989013671875-17.102828979492188-25.4193115234375-39.966506958007812-37.612945556640625-58.387046813964844-1.755401611328125-2.651847839355469-3.46112060546875-5.940174102783203-6.015594482421875-7.859413146972656v76.5h-30.75V21.375Z"/>
  <path class="cls-1" d="M130.5,124.5V37.5h30.75v56.25h46.5l-40.875-63h-36.375V0h44.625c4.031478881835938,0,11.066696166992188,4.168397426605225,13.868576049804688,7.131427764892578,15.592422485351562,23.382265090942383,34.447418212890625,46.100830078125,47.385772705078125,71.114223480224609,6.541061401367188,12.645660400390625,11.799652099609375,23.721420288085938,1.680679321289062,36.439361572265625-3.057693481445312,3.843025207519531-11.490554809570312,9.814979553222656-16.435028076171875,9.814979553222656,0,0-91.125,0-91.125.000007629394531Z"/>
  <path class="cls-1" d="M383.25,124.5V37.5h30.75v56.25h46.5l-39.75-63h-37.5V0h44.625c4.68853759765625,0,11.904937744140625,4.75710916519165,14.93505859375,8.314950942993164,10.919647216796875,12.821477890014648,24.527191162109375,34.177610397338867,33.751495361328125,48.748495101928711,6.834930419921875,10.796546936035156,20.97576904296875,31.960037231445312,19.928009033203125,44.55731201171875-.8179931640625,9.835060119628906-11.978424072265625,22.879241943359375-22.11456298828125,22.879241943359375h-91.125Z"/>
  <path class="cls-1" d="M117.75,68.25h-31.5v-20.25l-17.25,27h48.75v49.5h-31.5v-18.75l-36.983406066894531.141593933105469-12.891593933105469,18.608406066894531H0L74.266105651855469,9.391103744506836c11.169677734375-17.739246368408203,43.483894348144531-7.415786266326904,43.483894348144531,11.983896255493164v46.875Z"/>
</svg>