<?xml version="1.0" encoding="UTF-8"?>
<svg id="Layer_1" data-name="Layer 1" xmlns="http://www.w3.org/2000/svg" viewBox="0 0 496.5447364058 124.5669329363">
  <path d="M252,21.375c2.6394295795-20.9710743992,30.5854245019-29.2265695611,43.3717287799-11.8717287799l43.6282712201,66.9967287799V0h31.5v103.875c0,2.295031372-3.3860057849,8.764108018-4.9397248411,10.8102751589-10.3093900691,13.5769302168-28.8799109104,12.9090608747-39.1817370888-.438813229-13.1998796647-17.1028251591-25.4193182748-39.9665125361-37.6129524585-58.3870475771-1.7554130316-2.6518465924-3.4611106422-5.9401742472-6.0155856116-7.8594143528v76.5h-30.75V21.375Z"/>
  <path d="M130.5,124.5V37.5h30.75v56.25h46.5l-40.875-63h-36.375V0h44.625c4.0314743382,0,11.0666937159,4.1683971917,13.8685722954,7.1314277046,15.5924158281,23.3822658761,34.447419263,46.1008294757,47.3857694834,71.1142305166,6.5410535778,12.6456614316,11.7996580988,23.7214218295,1.6806809755,36.4393645334-3.0576873014,3.8430259731-11.4905613454,9.8149772455-16.4350227544,9.8149772455h-91.125Z"/>
  <path d="M383.25,124.5V37.5h30.75v56.25h46.5l-39.75-63h-37.5V0h44.625c4.6885321801,0,11.9049459775,4.7571091082,14.9350487324,8.3149512676,10.919650099,12.821476574,24.5271839418,34.1776127952,33.7515020446,48.7484979554,6.8349158341,10.7965458898,20.9757619816,31.9600338098,19.9280185597,44.5573072946-.8180038904,9.8350593312-11.9784096837,22.8792434824-22.1145693367,22.8792434824h-91.125Z"/>
  <path d="M117.75,68.25h-31.5v-20.25l-17.25,27h48.75v49.5h-31.5v-18.75l-36.9834041887.1415958113-12.8915958113,18.6084041887H0L74.2661040146,9.3911040146c11.1696794955-17.7392463524,43.4838959854-7.4157864826,43.4838959854,11.9838959854v46.875Z"/>
</svg>